<?xml version="1.0" encoding="UTF-8" standalone="no"?><!DOCTYPE svg PUBLIC "-//W3C//DTD SVG 1.1//EN" "http://www.w3.org/Graphics/SVG/1.1/DTD/svg11.dtd"><svg width="100%" height="100%" viewBox="0 0 16 14" version="1.1" xmlns="http://www.w3.org/2000/svg" xmlns:xlink="http://www.w3.org/1999/xlink" xml:space="preserve" xmlns:serif="http://www.serif.com/" style="fill-rule:evenodd;clip-rule:evenodd;stroke-linejoin:round;stroke-miterlimit:2;"><path id="monitoring" d="M12.681,2.935l-9.853,0l-0,4.106l2.59,-0c0.078,-0 0.149,0.044 0.184,0.113l0.51,1.022l1.275,-2.551c0.152,-0.302 0.583,-0.302 0.735,0l0.707,1.416l1.799,-0c0.227,-0 0.411,0.184 0.411,0.41c-0,0.227 -0.184,0.411 -0.411,0.411l-2.306,-0l-0.568,-1.135l-1.275,2.55c-0.151,0.303 -0.583,0.303 -0.734,0l-0.708,-1.415l-2.209,-0l-0,3.284l9.853,0l0,-8.211Zm1.232,-2.463l-12.317,-0c-0.68,-0 -1.232,0.551 -1.232,1.232l0,10.674c0,0.68 0.552,1.232 1.232,1.232l12.317,-0c0.68,-0 1.232,-0.552 1.232,-1.232l-0,-10.674c-0,-0.681 -0.552,-1.232 -1.232,-1.232Zm-0.411,11.496l-11.495,-0l-0,-9.854l11.495,0l0,9.854Z" style="fill:#919e9e;fill-rule:nonzero;"/></svg>