<?xml version="1.0" encoding="UTF-8" standalone="no"?>
<!DOCTYPE svg PUBLIC "-//W3C//DTD SVG 1.1//EN" "http://www.w3.org/Graphics/SVG/1.1/DTD/svg11.dtd">
<svg width="100%" height="100%" viewBox="0 0 12 14" version="1.1" xmlns="http://www.w3.org/2000/svg" xmlns:xlink="http://www.w3.org/1999/xlink" xml:space="preserve" style="fill-rule:evenodd;clip-rule:evenodd;stroke-linejoin:round;stroke-miterlimit:1.41421;">
    <g transform="matrix(1,0,0,1,-1,-0)">
        <g id="redirect-source" transform="matrix(-1,0,-0,1,15,0)">
            <g transform="matrix(1.5,0,-1.11796e-32,0.69633,2,1.10453)">
                <path d="M1.333,8.466L0,8.466L0,18.519L1.333,15.63L1.333,8.466Z" style="fill:rgb(146,158,158);"/>
            </g>
            <g transform="matrix(-1,0,0,1,16,0)">
                <path d="M4,6L2,6L5,0L8,6L6,6L6,8.586L11.414,14L8.586,14L4.293,9.707C4.254,9.666 4.254,9.666 4.218,9.623C4.184,9.578 4.152,9.533 4.125,9.484C4.042,9.334 4.005,9.17 4,9L4,6Z" style="fill:rgb(146,158,158);"/>
            </g>
        </g>
    </g>
</svg>
