<svg width="15" height="15" viewBox="0 0 15 15" xmlns="http://www.w3.org/2000/svg">
    <rect x="0" y="0" width="15" height="15" fill="#333333" />
    <path d="M10.986 8h-4V4h1v3h3V8z M7.486 3.201c-2.376 0-4.299 1.923-4.299 4.299    
             c0 2.376 1.923 4.299 4.299 4.299c2.376 0 4.299-1.923 4.299-4.299C11.784 5.124 9.861 3.201 7.486 3.201 
             M7.486 2    
             c3.038 0 5.5 2.462 5.5 5.5s-2.462 5.5-5.5 5.5s-5.5-2.462-5.5-5.5S4.448 2 7.486 2z" 
          fill="#CCCCCC" fill-rule="nonzero" />
</svg>
