<?xml version="1.0" encoding="UTF-8" standalone="no"?>
<!DOCTYPE svg PUBLIC "-//W3C//DTD SVG 1.1//EN" "http://www.w3.org/Graphics/SVG/1.1/DTD/svg11.dtd">
<svg width="100%" height="100%" viewBox="0 0 470 470" version="1.1" xmlns="http://www.w3.org/2000/svg" xmlns:xlink="http://www.w3.org/1999/xlink" xml:space="preserve" xmlns:serif="http://www.serif.com/" style="fill-rule:evenodd;clip-rule:evenodd;stroke-linejoin:round;stroke-miterlimit:2;">
    <circle cx="235" cy="235" r="234" style="fill:#ccc;"/>
    <path d="M274.305,139.763c-48.229,-11.816 -93.369,8.998 -115.252,52.899c-4.411,8.849 -6.998,18.317 -8.593,28.038c-0.828,5.049 0.194,6.094 5.589,6.139c8.33,0.068 16.662,-0.008 24.992,0.042c1.778,0.011 3.665,-0.451 6.262,1.4c-20.462,28.539 -40.9,57.044 -61.952,86.405c-20.951,-29.324 -41.285,-57.785 -61.567,-86.172c2.11,-2.16 4.046,-1.593 5.792,-1.607c8.997,-0.071 17.995,-0.141 26.991,-0.017c3.453,0.047 5.029,-1.066 5.421,-4.742c2.39,-22.448 8.686,-43.655 20.634,-62.998c23.195,-37.546 56.525,-61.088 99.887,-68.267c53.905,-8.924 100.051,7.168 136.593,48.301c21.363,24.047 32.964,52.527 35.23,84.618c3.245,45.945 -11.729,85.339 -44.759,117.193c-26.503,25.561 -58.635,39.088 -95.741,40.471c-29.467,1.098 -56.671,-6.011 -81.856,-21.18c-1.265,-0.761 -2.456,-1.644 -3.492,-2.342c-0.405,-1.891 0.735,-2.772 1.575,-3.75c8.358,-9.731 16.841,-19.358 25.048,-29.215c2.715,-3.262 4.937,-3.714 8.865,-1.744c48.803,24.475 107.363,5.123 132.354,-43.557c28.372,-55.267 -1.66,-123.374 -62.021,-139.915Z"/>
</svg>
