<?xml version="1.0" standalone="no"?>
<!DOCTYPE svg PUBLIC "-//W3C//DTD SVG 1.1//EN" "http://www.w3.org/Graphics/SVG/1.1/DTD/svg11.dtd">
<svg width="100%" height="100%" viewBox="0 0 451 112" version="1.1" xmlns="http://www.w3.org/2000/svg" xmlns:xlink="http://www.w3.org/1999/xlink" xml:space="preserve" style="fill-rule:evenodd;clip-rule:evenodd;stroke-miterlimit:1.41421;">
    <g transform="matrix(1,0,0,1,-52,-80)">
        <g id="SP-wb" transform="matrix(1.68922,0,0,1.68922,-178.253,-93.7338)">
            <g>
                <g transform="matrix(1,0,0,1,0,7.10387)">
                    <path d="M231.2,121.2C231.1,121.4 230.9,121.6 230.8,121.7C230.6,121.8 230.5,121.8 230.2,121.8C229.9,121.8 229.7,121.7 229.5,121.5C229.2,121.3 228.9,121.1 228.5,120.9C228.1,120.7 227.7,120.5 227.2,120.3C226.7,120.1 226.1,120 225.4,120C224.8,120 224.3,120.1 223.8,120.2C223.3,120.3 223,120.6 222.7,120.8C222.4,121.1 222.2,121.4 222,121.7C221.8,122.1 221.8,122.5 221.8,122.9C221.8,123.5 222,123.9 222.3,124.3C222.6,124.7 223,125 223.5,125.3C224,125.6 224.6,125.8 225.3,126C226,126.2 226.6,126.4 227.3,126.7C228,126.9 228.7,127.2 229.3,127.5C230,127.8 230.5,128.2 231.1,128.7C231.6,129.2 232,129.8 232.3,130.4C232.6,131.1 232.8,131.9 232.8,132.9C232.8,134 232.6,135 232.2,135.9C231.8,136.8 231.3,137.6 230.6,138.3C229.9,139 229,139.5 228,139.9C227,140.3 225.8,140.5 224.5,140.5C223.7,140.5 223,140.4 222.3,140.3C221.6,140.2 220.9,139.9 220.2,139.7C219.5,139.5 218.9,139.1 218.3,138.7C217.7,138.3 217.2,137.9 216.7,137.4L218,135.3C218.1,135.1 218.3,135 218.4,134.9C218.6,134.8 218.8,134.7 219,134.7C219.3,134.7 219.6,134.8 219.9,135C220.2,135.2 220.6,135.5 221,135.7C221.4,136 221.9,136.2 222.5,136.4C223.1,136.6 223.8,136.7 224.6,136.7C225.9,136.7 226.8,136.4 227.5,135.8C228.2,135.2 228.5,134.3 228.5,133.2C228.5,132.6 228.3,132.1 228,131.7C227.7,131.3 227.3,131 226.8,130.7C226.3,130.4 225.7,130.2 225,130C224.3,129.8 223.7,129.6 223,129.4C222.3,129.2 221.7,128.9 221,128.6C220.3,128.3 219.8,127.9 219.2,127.4C218.7,126.9 218.3,126.3 218,125.6C217.7,124.9 217.5,124 217.5,122.9C217.5,122 217.7,121.2 218,120.4C218.3,119.6 218.8,118.9 219.5,118.2C220.2,117.5 221,117.1 221.9,116.7C222.9,116.3 224,116.1 225.2,116.1C226.6,116.1 227.9,116.3 229.1,116.8C230.3,117.2 231.3,117.8 232.1,118.6L231.2,121.2Z" style="fill:white;fill-rule:nonzero;"/>
                </g>
                <g transform="matrix(1,0,0,1,0,7.10387)">
                    <path d="M242.8,123.5C243.9,123.5 244.8,123.7 245.7,124C246.6,124.3 247.4,124.8 248,125.5C248.6,126.2 249.1,126.9 249.5,127.9C249.9,128.8 250,129.9 250,131.1C250,131.4 250,131.7 250,131.9C250,132.1 249.9,132.3 249.9,132.4C249.8,132.5 249.7,132.6 249.6,132.6C249.5,132.6 249.3,132.7 249.1,132.7L238.7,132.7C238.8,134.4 239.3,135.7 240.1,136.5C240.9,137.3 242,137.7 243.3,137.7C244,137.7 244.5,137.6 245,137.5C245.5,137.3 245.9,137.2 246.2,137C246.6,136.8 246.9,136.6 247.1,136.5C247.4,136.3 247.6,136.3 247.9,136.3C248.1,136.3 248.2,136.3 248.3,136.4C248.4,136.5 248.5,136.6 248.6,136.7L249.8,138.2C249.4,138.7 248.8,139.2 248.3,139.5C247.7,139.9 247.2,140.1 246.6,140.4C246,140.6 245.4,140.8 244.7,140.9C244,141 243.5,141 242.9,141C241.7,141 240.6,140.8 239.6,140.4C238.6,140 237.7,139.4 237,138.7C236.3,137.9 235.7,137 235.2,135.9C234.8,134.8 234.6,133.5 234.6,132C234.6,130.9 234.8,129.8 235.2,128.8C235.6,127.8 236.1,126.9 236.8,126.2C237.5,125.5 238.3,124.9 239.3,124.4C240.3,123.9 241.6,123.5 242.8,123.5ZM242.9,126.4C241.7,126.4 240.8,126.7 240.1,127.4C239.4,128.1 239,129 238.8,130.2L246.4,130.2C246.4,129.7 246.3,129.2 246.2,128.7C246.1,128.2 245.8,127.8 245.5,127.5C245.2,127.2 244.8,126.9 244.4,126.7C244,126.5 243.5,126.4 242.9,126.4Z" style="fill:white;fill-rule:nonzero;"/>
                </g>
                <g transform="matrix(1,0,0,1,0,7.10387)">
                    <path d="M253.4,140.6L253.4,123.8L255.8,123.8C256.2,123.8 256.5,123.9 256.7,124C256.9,124.2 257,124.4 257,124.8L257.2,126.8C257.8,125.8 258.5,124.9 259.3,124.3C260.1,123.7 261,123.4 262,123.4C262.8,123.4 263.5,123.6 264.1,124L263.6,127C263.6,127.2 263.5,127.3 263.4,127.4C263.3,127.5 263.1,127.5 263,127.5C262.8,127.5 262.6,127.5 262.3,127.4C262,127.3 261.6,127.3 261.2,127.3C260.4,127.3 259.6,127.5 259,128C258.4,128.5 257.9,129.1 257.5,130L257.5,140.5L253.4,140.5L253.4,140.6Z" style="fill:white;fill-rule:nonzero;"/>
                </g>
                <g transform="matrix(1,0,0,1,0,7.10387)">
                    <path d="M275.2,140.6L271.5,140.6L264.8,123.8L268.2,123.8C268.5,123.8 268.7,123.9 268.9,124C269.1,124.1 269.2,124.3 269.3,124.5L272.5,133.5C272.7,134 272.8,134.5 273,135C273.1,135.5 273.2,136 273.3,136.5C273.4,136 273.5,135.5 273.6,135C273.7,134.5 273.9,134 274.1,133.5L277.4,124.5C277.5,124.3 277.6,124.1 277.8,124C278,123.9 278.2,123.8 278.5,123.8L281.7,123.8L275.2,140.6Z" style="fill:white;fill-rule:nonzero;"/>
                </g>
                <g transform="matrix(1,0,0,1,0,7.10387)">
                    <path d="M289.2,118.9C289.2,119.3 289.1,119.6 289,119.9C288.9,120.2 288.7,120.5 288.4,120.7C288.2,120.9 287.9,121.1 287.6,121.2C287.3,121.3 286.9,121.4 286.6,121.4C286.3,121.4 285.9,121.3 285.6,121.2C285.3,121.1 285,120.9 284.8,120.7C284.6,120.5 284.4,120.2 284.3,119.9C284.2,119.6 284.1,119.3 284.1,118.9C284.1,118.5 284.2,118.2 284.3,117.9C284.4,117.6 284.6,117.3 284.8,117.1C285,116.9 285.3,116.7 285.6,116.6C285.9,116.5 286.2,116.4 286.6,116.4C287,116.4 287.3,116.5 287.6,116.6C287.9,116.7 288.2,116.9 288.4,117.1C288.6,117.3 288.8,117.6 289,117.9C289.2,118.2 289.2,118.5 289.2,118.9ZM288.6,123.8L288.6,140.6L284.5,140.6L284.5,123.8L288.6,123.8Z" style="fill:white;fill-rule:nonzero;"/>
                </g>
                <g transform="matrix(1,0,0,1,0,7.10387)">
                    <path d="M305,127.4C304.9,127.6 304.8,127.7 304.6,127.8C304.5,127.9 304.3,127.9 304.1,127.9C303.9,127.9 303.7,127.8 303.5,127.7C303.3,127.6 303.1,127.4 302.8,127.3C302.5,127.2 302.2,127 301.8,126.9C301.4,126.8 301,126.7 300.4,126.7C299.7,126.7 299.1,126.8 298.5,127.1C298,127.4 297.5,127.7 297.2,128.2C296.8,128.7 296.6,129.3 296.4,129.9C296.2,130.6 296.1,131.4 296.1,132.2C296.1,133.1 296.2,133.9 296.4,134.6C296.6,135.3 296.9,135.9 297.2,136.4C297.6,136.9 298,137.2 298.5,137.5C299,137.8 299.6,137.9 300.2,137.9C300.8,137.9 301.4,137.8 301.8,137.7C302.2,137.5 302.5,137.4 302.8,137.2C303.1,137 303.3,136.8 303.5,136.7C303.7,136.5 303.9,136.5 304.2,136.5C304.5,136.5 304.8,136.6 304.9,136.9L306.1,138.4C305.7,138.9 305.2,139.4 304.6,139.7C304.1,140.1 303.5,140.3 303,140.6C302.4,140.8 301.9,141 301.3,141.1C300.7,141.2 300.1,141.2 299.5,141.2C298.5,141.2 297.5,141 296.6,140.6C295.7,140.2 294.9,139.6 294.2,138.9C293.5,138.2 293,137.2 292.6,136.2C292.2,135.1 292,133.9 292,132.5C292,131.3 292.2,130.1 292.5,129.1C292.8,128.1 293.4,127.1 294.1,126.4C294.8,125.7 295.6,125 296.7,124.6C297.7,124.2 298.9,123.9 300.2,123.9C301.5,123.9 302.6,124.1 303.5,124.5C304.4,124.9 305.3,125.5 306.1,126.2L305,127.4Z" style="fill:white;fill-rule:nonzero;"/>
                </g>
                <g transform="matrix(1,0,0,1,0,7.10387)">
                    <path d="M315.8,123.5C316.9,123.5 317.8,123.7 318.7,124C319.6,124.3 320.4,124.8 321,125.5C321.6,126.2 322.1,126.9 322.5,127.9C322.9,128.8 323,129.9 323,131.1C323,131.4 323,131.7 323,131.9C323,132.1 322.9,132.3 322.9,132.4C322.8,132.5 322.7,132.6 322.6,132.6C322.5,132.6 322.3,132.7 322.1,132.7L311.7,132.7C311.8,134.4 312.3,135.7 313.1,136.5C313.9,137.3 315,137.7 316.3,137.7C317,137.7 317.5,137.6 318,137.5C318.5,137.3 318.9,137.2 319.2,137C319.5,136.8 319.9,136.6 320.1,136.5C320.4,136.3 320.6,136.3 320.9,136.3C321.1,136.3 321.2,136.3 321.3,136.4C321.4,136.5 321.5,136.6 321.6,136.7L322.8,138.2C322.4,138.7 321.8,139.2 321.3,139.5C320.7,139.9 320.2,140.1 319.6,140.4C319,140.6 318.4,140.8 317.7,140.9C317,141 316.5,141 315.9,141C314.7,141 313.6,140.8 312.6,140.4C311.6,140 310.7,139.4 310,138.7C309.3,137.9 308.7,137 308.2,135.9C307.8,134.8 307.6,133.5 307.6,132C307.6,130.9 307.8,129.8 308.2,128.8C308.6,127.8 309.1,126.9 309.8,126.2C310.5,125.5 311.3,124.9 312.3,124.4C313.4,123.8 314.5,123.5 315.8,123.5ZM315.9,126.4C314.7,126.4 313.8,126.7 313.1,127.4C312.4,128.1 312,129 311.8,130.2L319.4,130.2C319.4,129.7 319.3,129.2 319.2,128.7C319.1,128.2 318.8,127.8 318.5,127.5C318.2,127.2 317.8,126.9 317.4,126.7C317,126.5 316.5,126.4 315.9,126.4Z" style="fill:white;fill-rule:nonzero;"/>
                </g>
                <g transform="matrix(1,0,0,1,0,7.10387)">
                    <path d="M331.2,132.3L331.2,140.6L326.8,140.6L326.8,116.9L334.5,116.9C336.1,116.9 337.5,117.1 338.6,117.5C339.8,117.9 340.7,118.4 341.5,119.1C342.3,119.8 342.8,120.6 343.2,121.5C343.6,122.4 343.7,123.4 343.7,124.6C343.7,125.7 343.5,126.8 343.1,127.8C342.7,128.8 342.1,129.6 341.4,130.3C340.6,131 339.7,131.5 338.5,131.9C337.3,132.3 336,132.5 334.5,132.5L331.2,132.5L331.2,132.3ZM331.2,128.8L334.5,128.8C335.3,128.8 336,128.7 336.6,128.5C337.2,128.3 337.7,128 338.1,127.6C338.5,127.2 338.8,126.8 339,126.2C339.2,125.7 339.3,125.1 339.3,124.4C339.3,123.8 339.2,123.2 339,122.7C338.8,122.2 338.5,121.7 338.1,121.4C337.7,121 337.2,120.8 336.6,120.6C336,120.4 335.3,120.3 334.5,120.3L331.2,120.3L331.2,128.8Z" style="fill:white;fill-rule:nonzero;"/>
                </g>
                <g transform="matrix(1,0,0,1,0,7.10387)">
                    <path d="M350.6,123.8L350.6,134.5C350.6,135.5 350.8,136.3 351.3,136.9C351.8,137.5 352.5,137.7 353.4,137.7C354.1,137.7 354.8,137.5 355.4,137.2C356,136.9 356.6,136.5 357.1,135.9L357.1,123.7L361.2,123.7L361.2,140.5L358.7,140.5C358.2,140.5 357.8,140.3 357.7,139.8L357.4,138.5C357.1,138.9 356.7,139.2 356.3,139.5C355.9,139.8 355.5,140 355.1,140.2C354.7,140.4 354.2,140.6 353.7,140.7C353.2,140.8 352.7,140.9 352.1,140.9C351.2,140.9 350.4,140.7 349.7,140.4C349,140.1 348.4,139.6 347.9,139.1C347.4,138.6 347.1,137.9 346.8,137.1C346.6,136.3 346.4,135.5 346.4,134.5L346.4,123.8L350.6,123.8Z" style="fill:white;fill-rule:nonzero;"/>
                </g>
                <g transform="matrix(1,0,0,1,0,7.10387)">
                    <rect x="365.7" y="116.3" width="4.1" height="24.4" style="fill:white;fill-rule:nonzero;"/>
                </g>
                <g transform="matrix(1,0,0,1,0,7.10387)">
                    <path d="M384.4,127.1C384.3,127.3 384.2,127.4 384.1,127.5C384,127.6 383.8,127.6 383.6,127.6C383.4,127.6 383.2,127.5 383,127.4C382.8,127.3 382.5,127.2 382.2,127C381.9,126.9 381.6,126.7 381.2,126.6C380.8,126.5 380.4,126.4 379.9,126.4C379.1,126.4 378.5,126.6 378,126.9C377.5,127.2 377.3,127.7 377.3,128.2C377.3,128.6 377.4,128.9 377.7,129.1C377.9,129.3 378.2,129.6 378.6,129.7C379,129.9 379.4,130.1 379.9,130.2C380.4,130.3 380.9,130.5 381.4,130.7C381.9,130.9 382.4,131.1 382.9,131.3C383.4,131.5 383.8,131.8 384.2,132.2C384.6,132.5 384.9,133 385.1,133.4C385.3,133.9 385.5,134.5 385.5,135.1C385.5,135.9 385.4,136.7 385.1,137.3C384.8,138 384.4,138.6 383.8,139.1C383.2,139.6 382.5,140 381.7,140.3C380.9,140.6 379.9,140.7 378.8,140.7C378.2,140.7 377.7,140.6 377.1,140.5C376.5,140.4 376,140.3 375.5,140.1C375,139.9 374.5,139.7 374.1,139.4C373.7,139.1 373.3,138.9 373,138.6L373.9,137.1C374,136.9 374.2,136.8 374.3,136.7C374.5,136.6 374.7,136.6 374.9,136.6C375.2,136.6 375.4,136.7 375.6,136.8C375.8,136.9 376.1,137.1 376.4,137.3C376.7,137.5 377,137.6 377.4,137.8C377.8,137.9 378.3,138 378.9,138C379.4,138 379.8,137.9 380.1,137.8C380.4,137.7 380.7,137.5 381,137.3C381.2,137.1 381.4,136.9 381.5,136.7C381.6,136.5 381.7,136.2 381.7,135.9C381.7,135.5 381.6,135.2 381.3,134.9C381,134.6 380.8,134.4 380.4,134.2C380,134 379.6,133.8 379.1,133.7C378.6,133.6 378.1,133.4 377.6,133.2C377.1,133 376.6,132.8 376.1,132.6C375.6,132.4 375.2,132.1 374.8,131.7C374.4,131.3 374.1,130.9 373.9,130.4C373.7,129.9 373.5,129.2 373.5,128.5C373.5,127.8 373.6,127.2 373.9,126.5C374.2,125.8 374.6,125.3 375.1,124.9C375.6,124.4 376.3,124.1 377.1,123.8C377.9,123.5 378.8,123.4 379.8,123.4C381,123.4 382,123.6 383,124C384,124.4 384.7,124.9 385.4,125.5L384.4,127.1Z" style="fill:white;fill-rule:nonzero;"/>
                </g>
                <g transform="matrix(1,0,0,1,0,7.10387)">
                    <path d="M395.7,123.5C396.8,123.5 397.7,123.7 398.6,124C399.5,124.3 400.3,124.8 400.9,125.5C401.5,126.2 402,126.9 402.4,127.9C402.8,128.8 402.9,129.9 402.9,131.1C402.9,131.4 402.9,131.7 402.9,131.9C402.9,132.1 402.8,132.3 402.8,132.4C402.7,132.5 402.6,132.6 402.5,132.6C402.4,132.6 402.2,132.7 402,132.7L391.6,132.7C391.7,134.4 392.2,135.7 393,136.5C393.8,137.3 394.9,137.7 396.2,137.7C396.9,137.7 397.4,137.6 397.9,137.5C398.4,137.3 398.8,137.2 399.1,137C399.4,136.8 399.8,136.6 400,136.5C400.3,136.3 400.5,136.3 400.8,136.3C401,136.3 401.1,136.3 401.2,136.4C401.3,136.5 401.4,136.6 401.5,136.7L402.7,138.2C402.3,138.7 401.7,139.2 401.2,139.5C400.6,139.9 400.1,140.1 399.5,140.4C398.9,140.6 398.3,140.8 397.6,140.9C396.9,141 396.4,141 395.8,141C394.6,141 393.5,140.8 392.5,140.4C391.5,140 390.6,139.4 389.9,138.7C389.2,137.9 388.6,137 388.1,135.9C387.7,134.8 387.5,133.5 387.5,132C387.5,130.9 387.7,129.8 388.1,128.8C388.5,127.8 389,126.9 389.7,126.2C390.4,125.5 391.2,124.9 392.2,124.4C393.3,123.8 394.5,123.5 395.7,123.5ZM395.8,126.4C394.6,126.4 393.7,126.7 393,127.4C392.3,128.1 391.9,129 391.7,130.2L399.3,130.2C399.3,129.7 399.2,129.2 399.1,128.7C399,128.2 398.7,127.8 398.4,127.5C398.1,127.2 397.7,126.9 397.3,126.7C396.9,126.5 396.4,126.4 395.8,126.4Z" style="fill:white;fill-rule:nonzero;"/>
                </g>
            </g>
            <g>
                <g>
                    <rect x="137.2" y="104.1" width="63.8" height="63.8" style="fill:rgb(32,91,93);"/>
                    <g>
                        <path d="M144.2,104.1L144.2,167.9" style="fill:none;stroke-width:1px;stroke:rgb(64,147,147);"/>
                        <path d="M151.3,104.1L151.3,167.9" style="fill:none;stroke-width:1px;stroke:rgb(64,147,147);"/>
                        <path d="M165.6,104.1L165.6,167.9" style="fill:none;stroke-width:1px;stroke:rgb(64,147,147);"/>
                        <path d="M172.6,104.1L172.6,167.9" style="fill:none;stroke-width:1px;stroke:rgb(64,147,147);"/>
                        <path d="M179.7,104.1L179.7,167.9" style="fill:none;stroke-width:1px;stroke:rgb(64,147,147);"/>
                        <path d="M186.7,104.1L186.7,167.9" style="fill:none;stroke-width:1px;stroke:rgb(64,147,147);"/>
                        <path d="M193.8,104.1L193.8,167.9" style="fill:none;stroke-width:1px;stroke:rgb(64,147,147);"/>
                        <g transform="matrix(1.00157,0,0,1,-0.215385,0)">
                            <path d="M200.9,111.2L137.2,111.2" style="fill:none;stroke-width:1px;stroke:rgb(64,147,147);"/>
                        </g>
                        <g transform="matrix(1.00157,0,0,1,-0.215385,0)">
                            <path d="M200.9,118.3L137.2,118.3" style="fill:none;stroke-width:1px;stroke:rgb(64,147,147);"/>
                        </g>
                        <g transform="matrix(1.00157,0,0,1,-0.215385,0)">
                            <path d="M200.9,132.6L137.2,132.6" style="fill:none;stroke-width:1px;stroke:rgb(64,147,147);"/>
                        </g>
                        <g transform="matrix(1.00157,0,0,1,-0.215385,0)">
                            <path d="M200.9,139.6L137.2,139.6" style="fill:none;stroke-width:1px;stroke:rgb(64,147,147);"/>
                        </g>
                        <g transform="matrix(1.00157,0,0,1,-0.215385,0)">
                            <path d="M200.9,146.6L137.2,146.6" style="fill:none;stroke-width:1px;stroke:rgb(64,147,147);"/>
                        </g>
                        <g transform="matrix(1.00157,0,0,1,-0.215385,0)">
                            <path d="M200.9,153.7L137.2,153.7" style="fill:none;stroke-width:1px;stroke:rgb(64,147,147);"/>
                        </g>
                        <g transform="matrix(1.00157,0,0,1,-0.215385,0)">
                            <path d="M200.9,160.8L137.2,160.8" style="fill:none;stroke-width:1px;stroke:rgb(64,147,147);"/>
                        </g>
                    </g>
                    <g transform="matrix(1.00157,0,0,1,-0.215385,0)">
                        <path d="M137.2,125.4L200.9,125.4" style="fill:none;stroke-width:1px;stroke:rgb(64,147,147);"/>
                    </g>
                    <path d="M158.4,104.1L158.4,167.9" style="fill:none;stroke-width:1px;stroke:rgb(64,147,147);"/>
                </g>
                <path d="M141,137.1L148.2,137.1L150.8,130.3L156.9,145.9L160,139L164.6,139L168.6,113.6L173.7,154.6L177.6,136L178.7,138.4L183.6,138.4L185.6,129.4L188.7,137L198.2,137" style="fill:none;stroke-width:3.48px;stroke-linejoin:round;stroke:white;"/>
            </g>
        </g>
    </g>
</svg>
