<?xml version="1.0" encoding="UTF-8" standalone="no"?>
<!DOCTYPE svg PUBLIC "-//W3C//DTD SVG 1.1//EN" "http://www.w3.org/Graphics/SVG/1.1/DTD/svg11.dtd">
<svg width="100%" height="100%" viewBox="0 0 12 14" version="1.1" xmlns="http://www.w3.org/2000/svg" xmlns:xlink="http://www.w3.org/1999/xlink" xml:space="preserve" style="fill-rule:evenodd;clip-rule:evenodd;stroke-linejoin:round;stroke-miterlimit:1.41421;">
    <g transform="matrix(1,0,0,1,-2,-0)">
        <g id="redirect-destination" transform="matrix(1,5.66554e-16,5.66554e-16,-1,-3.55271e-15,14)">
            <g transform="matrix(1.5,0,-1.11796e-32,0.69633,2,1.10453)">
                <path d="M1.333,8.466L0,8.466L0,18.519L1.333,15.63L1.333,8.466Z" style="fill:rgb(146,158,158);"/>
            </g>
            <g transform="matrix(1,5.66554e-16,5.66554e-16,-1,1,14)">
                <path d="M9,8L9,5.414L3.586,0L6.414,0C8.081,1.667 9.04,2.626 10.707,4.293C10.759,4.348 10.807,4.404 10.847,4.468C10.948,4.63 10.995,4.811 11,5L11,8L13,8L10,14L7,8L9,8Z" style="fill:rgb(146,158,158);"/>
            </g>
        </g>
    </g>
</svg>
