<?xml version="1.0" encoding="UTF-8" standalone="no"?>
<!DOCTYPE svg PUBLIC "-//W3C//DTD SVG 1.1//EN" "http://www.w3.org/Graphics/SVG/1.1/DTD/svg11.dtd">
<svg width="100%" height="100%" viewBox="0 0 400 400" version="1.1" xmlns="http://www.w3.org/2000/svg" xmlns:xlink="http://www.w3.org/1999/xlink" xml:space="preserve" style="fill-rule:evenodd;clip-rule:evenodd;stroke-linejoin:round;stroke-miterlimit:1.41421;">
    <g transform="matrix(6.25591,0,0,6.25591,-857.686,-651.241)">
        <rect x="137.1" y="104.1" width="63.8" height="63.8" style="fill:rgb(88,93,128);"/>
    </g>
    <g transform="matrix(6.25591,0,0,6.25591,-857.686,-651.241)">
        <rect x="144.2" y="111.2" width="7.1" height="7.1" style="fill:rgb(135,140,170);"/>
    </g>
    <g transform="matrix(6.25591,0,0,6.25591,-857.686,-651.241)">
        <rect x="158.4" y="111.2" width="7.1" height="7.1" style="fill:rgb(135,140,170);"/>
    </g>
    <g transform="matrix(6.25591,0,0,6.25591,-857.686,-651.241)">
        <rect x="172.6" y="111.2" width="7.1" height="7.1" style="fill:rgb(135,140,170);"/>
    </g>
    <g transform="matrix(6.25591,0,0,6.25591,-857.686,-651.241)">
        <rect x="186.7" y="111.2" width="7.1" height="7.1" style="fill:rgb(135,140,170);"/>
    </g>
    <g transform="matrix(6.25591,0,0,6.25591,-857.686,-651.241)">
        <rect x="144.2" y="125.3" width="7.1" height="7.1" style="fill:rgb(135,140,170);"/>
    </g>
    <g transform="matrix(6.25591,0,0,6.25591,-857.686,-651.241)">
        <rect x="158.4" y="125.3" width="5.5" height="7.1" style="fill:rgb(135,140,170);"/>
    </g>
    <g transform="matrix(6.25591,0,0,6.25591,-857.686,-651.241)">
        <rect x="188" y="125.3" width="5.8" height="7.1" style="fill:rgb(135,140,170);"/>
    </g>
    <g transform="matrix(6.25591,0,0,6.25591,-857.686,-651.241)">
        <rect x="144.2" y="139.5" width="7.1" height="7.1" style="fill:rgb(135,140,170);"/>
    </g>
    <g transform="matrix(6.25591,0,0,6.25591,-857.686,-651.241)">
        <rect x="158.4" y="139.5" width="7.1" height="7.1" style="fill:rgb(135,140,170);"/>
    </g>
    <g transform="matrix(6.25591,0,0,6.25591,-857.686,-651.241)">
        <rect x="172.6" y="142" width="7.1" height="4.6" style="fill:rgb(135,140,170);"/>
    </g>
    <g transform="matrix(6.25591,0,0,6.25591,-857.686,-651.241)">
        <rect x="186.7" y="139.5" width="7.1" height="7.1" style="fill:rgb(135,140,170);"/>
    </g>
    <g transform="matrix(6.25591,0,0,6.25591,-857.686,-651.241)">
        <rect x="144.2" y="153.6" width="7.1" height="7.1" style="fill:rgb(135,140,170);"/>
    </g>
    <g transform="matrix(6.25591,0,0,6.25591,-857.686,-651.241)">
        <rect x="158.4" y="153.6" width="7.1" height="7.1" style="fill:rgb(135,140,170);"/>
    </g>
    <g transform="matrix(6.25591,0,0,6.25591,-857.686,-651.241)">
        <rect x="172.6" y="153.6" width="7.1" height="7.1" style="fill:rgb(135,140,170);"/>
    </g>
    <g transform="matrix(6.25591,0,0,6.25591,-857.686,-651.241)">
        <rect x="186.7" y="153.6" width="7.1" height="7.1" style="fill:rgb(135,140,170);"/>
    </g>
    <g transform="matrix(5.12028,0,0,5.12028,-687.682,-474.991)">
        <path d="M176.1,128.8L149.7,155.2" style="fill:rgb(156,51,93);fill-rule:nonzero;"/>
    </g>
    <g transform="matrix(5.12028,0,0,5.12028,-687.682,-474.991)">
        <path d="M176.365,125.768C176.522,125.786 176.561,125.787 176.716,125.819C177.063,125.891 177.396,126.023 177.698,126.209C177.949,126.364 178.178,126.556 178.374,126.776C178.649,127.085 178.859,127.45 178.989,127.843C179.101,128.179 179.153,128.534 179.143,128.889C179.134,129.184 179.082,129.477 178.989,129.757C178.878,130.094 178.707,130.41 178.488,130.688C178.39,130.812 178.36,130.838 178.252,130.952L151.852,157.352C151.809,157.393 151.768,157.435 151.724,157.474C151.635,157.552 151.543,157.626 151.446,157.693C151.107,157.931 150.72,158.097 150.316,158.181C149.969,158.253 149.609,158.263 149.259,158.212C148.908,158.16 148.567,158.047 148.255,157.879C147.891,157.683 147.569,157.412 147.312,157.088C147.129,156.856 146.98,156.598 146.871,156.324C146.762,156.049 146.693,155.759 146.668,155.465C146.632,155.053 146.68,154.635 146.811,154.243C146.922,153.906 147.093,153.59 147.312,153.312C147.41,153.188 147.44,153.162 147.548,153.048L173.948,126.648C173.991,126.607 174.032,126.565 174.076,126.526C174.165,126.448 174.257,126.374 174.354,126.307C174.693,126.069 175.08,125.903 175.484,125.819C175.658,125.783 175.834,125.762 176.011,125.757C176.07,125.756 176.13,125.757 176.189,125.757C176.247,125.761 176.306,125.764 176.365,125.768Z" style="fill:white;fill-rule:nonzero;"/>
    </g>
    <g transform="matrix(6.25591,0,0,6.25591,-857.686,-651.241)">
        <circle cx="176.1" cy="128.9" r="12" style="fill:rgb(135,140,170);"/>
    </g>
    <g transform="matrix(6.25591,0,0,6.25591,-857.686,-651.241)">
        <path d="M176.144,115.158C176.409,115.159 176.673,115.167 176.937,115.183C177.442,115.214 177.946,115.272 178.445,115.358C179.613,115.559 180.754,115.913 181.831,116.408C182.685,116.801 183.499,117.282 184.255,117.841C184.962,118.364 185.619,118.954 186.214,119.601C187.111,120.575 187.866,121.679 188.449,122.868C188.931,123.852 189.294,124.895 189.527,125.966C189.868,127.528 189.932,129.149 189.72,130.733C189.626,131.44 189.476,132.139 189.273,132.823C188.97,133.839 188.548,134.82 188.019,135.74C187.292,137.004 186.362,138.151 185.277,139.125C184.704,139.64 184.088,140.107 183.437,140.519C182.733,140.965 181.988,141.346 181.216,141.656C180.403,141.983 179.559,142.231 178.699,142.396C177.857,142.557 177.001,142.639 176.144,142.642C175.287,142.645 174.429,142.568 173.586,142.412C172.724,142.252 171.878,142.009 171.062,141.687C170.339,141.402 169.639,141.054 168.975,140.65C168.269,140.221 167.602,139.728 166.984,139.18C165.893,138.212 164.957,137.071 164.222,135.812C163.674,134.871 163.238,133.866 162.927,132.823C162.716,132.112 162.562,131.383 162.468,130.647C162.267,129.062 162.341,127.442 162.691,125.882C162.925,124.841 163.282,123.827 163.751,122.868C164.334,121.679 165.089,120.575 165.986,119.601C166.599,118.933 167.279,118.327 168.012,117.792C168.749,117.254 169.54,116.79 170.369,116.408C171.42,115.925 172.532,115.576 173.67,115.373C174.183,115.281 174.7,115.219 175.22,115.186C175.483,115.169 175.747,115.16 176.011,115.158C176.056,115.158 176.1,115.158 176.144,115.158ZM176.067,118.642C175.869,118.643 175.671,118.649 175.473,118.661C175.074,118.685 174.677,118.732 174.284,118.802C173.436,118.954 172.608,119.214 171.825,119.574C171.206,119.858 170.615,120.205 170.065,120.607C169.517,121.007 169.009,121.46 168.55,121.959C167.852,122.718 167.268,123.581 166.826,124.512C166.485,125.231 166.228,125.991 166.063,126.77C165.72,128.397 165.776,130.107 166.231,131.707C166.453,132.488 166.769,133.242 167.17,133.949C167.718,134.915 168.424,135.791 169.251,136.533C170.142,137.334 171.172,137.977 172.283,138.424C172.888,138.667 173.517,138.851 174.158,138.974C174.787,139.095 175.427,139.156 176.067,139.158C176.708,139.16 177.349,139.103 177.979,138.986C178.621,138.867 179.252,138.686 179.859,138.447C180.973,138.007 182.007,137.369 182.903,136.574C183.734,135.837 184.445,134.965 184.999,134.002C185.404,133.299 185.725,132.547 185.951,131.768C186.422,130.151 186.485,128.418 186.137,126.77C185.972,125.991 185.715,125.232 185.374,124.512C184.94,123.6 184.371,122.752 183.692,122.005C183.236,121.503 182.73,121.046 182.185,120.643C181.637,120.239 181.049,119.888 180.432,119.6C179.652,119.235 178.826,118.971 177.979,118.814C177.598,118.743 177.212,118.694 176.825,118.667C176.628,118.653 176.431,118.646 176.233,118.643C176.178,118.642 176.122,118.642 176.067,118.642Z" style="fill:white;fill-rule:nonzero;"/>
    </g>
    <g transform="matrix(6.25591,0,0,6.25591,-857.686,-651.241)">
        <rect x="172.6" y="125.3" width="7.1" height="7.1" style="fill:rgb(88,93,128);"/>
    </g>
</svg>
