<?xml version="1.0" encoding="UTF-8" standalone="no"?><!DOCTYPE svg PUBLIC "-//W3C//DTD SVG 1.1//EN" "http://www.w3.org/Graphics/SVG/1.1/DTD/svg11.dtd"><svg width="100%" height="100%" viewBox="0 0 320 512" version="1.1" xmlns="http://www.w3.org/2000/svg" xmlns:xlink="http://www.w3.org/1999/xlink" xml:space="preserve" xmlns:serif="http://www.serif.com/" style="fill-rule:evenodd;clip-rule:evenodd;stroke-linejoin:round;stroke-miterlimit:2;"><path d="M288,288l-256,0c-28.4,0 -42.8,34.5 -22.6,54.6l128,128c12.5,12.5 32.8,12.5 45.3,-0l128,-128c20,-20.1 5.7,-54.6 -22.7,-54.6Zm-128,160l-128,-128l256,0l-128,128Z" style="fill:#949e9e;fill-rule:nonzero;"/><path d="M32,224l256,0c28.4,0 42.8,-34.5 22.6,-54.6l-128,-128c-12.5,-12.5 -32.8,-12.5 -45.3,-0l-128,128c-20,20.1 -5.7,54.6 22.7,54.6Z" style="fill-rule:nonzero;"/></svg>