<?xml version="1.0" encoding="UTF-8" standalone="no"?>
<!DOCTYPE svg PUBLIC "-//W3C//DTD SVG 1.1//EN" "http://www.w3.org/Graphics/SVG/1.1/DTD/svg11.dtd">
<svg width="100%" height="100%" viewBox="0 0 470 470" version="1.1" xmlns="http://www.w3.org/2000/svg" xmlns:xlink="http://www.w3.org/1999/xlink" xml:space="preserve" xmlns:serif="http://www.serif.com/" style="fill-rule:evenodd;clip-rule:evenodd;stroke-linejoin:round;stroke-miterlimit:2;">
    <circle cx="235" cy="235" r="234" style="fill:#c63f3f;"/>
    <path d="M237.009,290.515c-1.444,0.913 -3.11,1.602 -4.298,2.776c-9.237,9.124 -18.382,18.341 -27.658,27.632c-18.269,-18.284 -36.332,-36.363 -54.448,-54.494c-18.629,18.644 -36.706,36.734 -54.464,54.505c-10.915,-10.897 -21.243,-21.208 -31.614,-31.562c17.695,-17.689 35.701,-35.689 53.481,-53.464c-18.418,-18.374 -36.527,-36.442 -54.208,-54.081c11.193,-11.212 21.486,-21.523 32.145,-32.2c17.51,17.535 35.577,35.627 53.566,53.641c18.295,-18.331 36.275,-36.347 54.547,-54.655c11.09,10.769 21.637,21.011 32.551,31.482c0.386,0.412 0.405,0.595 0.059,0.742c-1.293,0.599 -2.35,1.106 -3.133,1.887c-16.76,16.707 -33.493,33.442 -50.211,50.192c-0.659,0.661 -1.117,1.524 -1.801,2.477c17.628,17.599 35.069,35.029 52.562,52.407c0.734,0.729 1.96,0.962 2.95,1.641c-0.014,0.501 -0.021,0.787 -0.026,1.074Z" style="fill:#fffdfd;"/>
    <path d="M237.033,180.873c-0.019,-0.183 -0.038,-0.366 -0.086,-0.823c10.315,-10.134 20.659,-19.994 31.197,-30.038c17.282,17.304 35.335,35.38 53.422,53.49c18.516,-18.547 36.582,-36.643 54.28,-54.37c10.899,10.909 21.197,21.216 31.775,31.802c-17.612,17.603 -35.703,35.684 -53.958,53.93c18.373,18.364 36.459,36.44 54.228,54.201c-10.635,10.661 -20.837,20.888 -30.996,31.071c-17.581,-17.679 -35.617,-35.814 -53.48,-53.777c-18.867,18.895 -36.948,37.003 -55.295,55.377c-10.758,-10.714 -20.75,-20.665 -30.926,-30.918c-0.18,-0.59 -0.173,-0.876 -0.001,-1.68c18.002,-18.171 35.839,-35.823 54.821,-54.609c-2.464,-1.731 -4.309,-2.668 -5.699,-4.06c-16.467,-16.492 -32.866,-33.053 -49.282,-49.596Z" style="fill:#fffdfd;"/>
</svg>
