<?xml version="1.0" encoding="UTF-8" standalone="no"?>
<!DOCTYPE svg PUBLIC "-//W3C//DTD SVG 1.1//EN" "http://www.w3.org/Graphics/SVG/1.1/DTD/svg11.dtd">
<svg width="100%" height="100%" viewBox="0 0 470 470" version="1.1" xmlns="http://www.w3.org/2000/svg" xmlns:xlink="http://www.w3.org/1999/xlink" xml:space="preserve" xmlns:serif="http://www.serif.com/" style="fill-rule:evenodd;clip-rule:evenodd;stroke-linejoin:round;stroke-miterlimit:2;">
    <circle cx="235" cy="235" r="234" style="fill:#c63f3f;"/>
    <path d="M341.61,154.395c3.019,2.615 5.787,4.979 8.705,7.47c-24.808,24.8 -48.701,48.685 -72.783,72.758c24.333,24.324 48.315,48.297 72.061,72.034c-14.066,14.071 -27.591,27.599 -41.116,41.129c-23.621,-23.643 -47.559,-47.603 -71.732,-71.799c-24.775,24.784 -48.755,48.774 -72.505,72.533c-13.992,-13.982 -27.525,-27.506 -41.026,-40.998c23.666,-23.659 47.624,-47.609 71.874,-71.852c-24.771,-24.736 -48.761,-48.692 -72.645,-72.541c14.084,-14.004 27.655,-27.498 41.405,-41.171c23.683,23.69 47.641,47.656 71.705,71.728c24.478,-24.487 48.352,-48.369 72.681,-72.707c11.327,11.34 22.226,22.253 33.376,33.416Z" style="fill:#fffefe;"/>
</svg>
