<?xml version="1.0" encoding="UTF-8" standalone="no"?>
<!DOCTYPE svg PUBLIC "-//W3C//DTD SVG 1.1//EN" "http://www.w3.org/Graphics/SVG/1.1/DTD/svg11.dtd">
<svg width="100%" height="100%" viewBox="0 0 16 16" version="1.1" xmlns="http://www.w3.org/2000/svg" xmlns:xlink="http://www.w3.org/1999/xlink" xml:space="preserve" xmlns:serif="http://www.serif.com/" style="fill-rule:evenodd;clip-rule:evenodd;stroke-linejoin:round;stroke-miterlimit:2;">
    <g transform="matrix(1,0,0,1,-581,-742)">
        <g id="timeout" transform="matrix(1,0,0,1,596.565,753.212)">
            <path d="M0,-6.402C0.276,-6.875 0.435,-7.425 0.435,-8.013C0.435,-9.78 -0.997,-11.212 -2.764,-11.212C-3.361,-11.212 -3.919,-11.048 -4.397,-10.764C-2.425,-9.938 -0.841,-8.366 0,-6.402M-10.728,-10.764C-11.206,-11.048 -11.764,-11.212 -12.36,-11.212C-14.127,-11.212 -15.56,-9.78 -15.56,-8.013C-15.56,-7.425 -15.401,-6.875 -15.125,-6.402C-14.284,-8.366 -12.699,-9.938 -10.728,-10.764M-7.562,2.12C-10.489,2.12 -12.858,-0.248 -12.858,-3.176C-12.858,-6.103 -10.49,-8.472 -7.562,-8.472C-4.636,-8.472 -2.266,-6.103 -2.266,-3.176C-2.266,-0.249 -4.635,2.12 -7.562,2.12M-2.357,1.581C-1.211,0.327 -0.511,-1.342 -0.511,-3.176C-0.511,-7.07 -3.668,-10.227 -7.562,-10.227C-11.457,-10.227 -14.614,-7.07 -14.614,-3.176C-14.614,-1.342 -13.914,0.327 -12.767,1.581C-13.12,2.46 -13.583,3.612 -13.896,4.391C-13.944,4.508 -13.909,4.643 -13.81,4.723C-13.712,4.803 -13.573,4.809 -13.468,4.739C-12.75,4.259 -11.683,3.545 -10.913,3.03C-9.917,3.569 -8.775,3.876 -7.562,3.876C-6.349,3.876 -5.208,3.569 -4.211,3.03L-1.657,4.739C-1.552,4.81 -1.413,4.803 -1.314,4.723C-1.216,4.643 -1.181,4.509 -1.228,4.391L-2.357,1.581ZM-4.27,-1.802L-8.687,-1.802L-8.687,-6.655L-7.282,-6.655L-7.282,-3.206L-4.27,-3.206L-4.27,-1.802Z" style="fill-rule:nonzero;"/>
        </g>
    </g>
</svg>
