<svg width="32" height="32" viewBox="0 0 32 32" xmlns="http://www.w3.org/2000/svg">
    <path d="M21.8 18.5H14V10h2.5v6h5.3L21.8 18.5L21.8 18.5z M25.1 24.4c2-2.2 3.2-5.1 3.2-8.3  c0-6.8-5.5-12.3-12.3-12.3C9.2 3.7 3.7 9.2 3.7 16.1c0 3.2 1.2 6.1 3.2 8.3c-0.6 1.5-1.4 3.6-2 4.9c-0.1 0.2 0 0.4 0.2 0.6  c0.2 0.1 0.4 0.2 0.6 0c1.3-0.8 3.1-2.1 4.5-3c1.7 0.9 3.7 1.5 5.9 1.5s4.1-0.5 5.9-1.5l4.5 3c0.2 0.1 0.4 0.1 0.6 0  c0.2-0.1 0.2-0.4 0.2-0.6L25.1 24.4z M16 25.3c-5.1 0-9.3-4.1-9.3-9.3c0-5.1 4.1-9.3 9.3-9.3c5.1 0 9.3 4.1 9.3 9.3  C25.3 21.2 21.1 25.3 16 25.3z M10.5 2.8C9.6 2.3 8.6 2 7.6 2C4.5 2 2 4.5 2 7.6c0 1 0.3 2 0.8 2.8C4.2 7 7 4.2 10.5 2.8z   M29.2 10.4C29.7 9.6 30 8.6 30 7.6C30 4.5 27.5 2 24.4 2c-1 0-2 0.3-2.9 0.8C25 4.2 27.8 7 29.2 10.4z" fill="currentColor" fill-rule="nonzero" />
</svg>